<?xml version="1.0" encoding="utf-8"?>
<!-- Generator: Adobe Illustrator 25.2.3, SVG Export Plug-In . SVG Version: 6.00 Build 0)  -->
<svg version="1.1" xmlns="http://www.w3.org/2000/svg" xmlns:xlink="http://www.w3.org/1999/xlink" x="0px" y="0px"
	 viewBox="0 0 100 100" style="enable-background:new 0 0 100 100;" xml:space="preserve">
<style type="text/css">
	.st0{display:none;}
	.st1{display:inline;opacity:0.5;}
	.st2{opacity:0.2;}
	.st3{fill-rule:evenodd;clip-rule:evenodd;fill:#606060;}
	.st4{fill:#015641;}
	.st5{fill:#F5F8FC;}
	.st6{fill:#FAC700;}
	.st7{clip-path:url(#SVGID_8_);fill:url(#SVGID_9_);}
	.st8{clip-path:url(#SVGID_11_);fill:url(#SVGID_12_);}
	.st9{clip-path:url(#SVGID_14_);fill:url(#SVGID_15_);}
	.st10{fill:none;stroke:#FFFFFF;stroke-width:2;stroke-miterlimit:10;}
	.st11{fill:#FFFFFF;}
	.st12{opacity:0.3;fill:none;stroke:#FFFFFF;stroke-miterlimit:10;}
	.st13{opacity:0.5;fill:none;stroke:#FFFFFF;stroke-miterlimit:10;}
	.st14{fill:none;stroke:#000000;stroke-width:5;stroke-miterlimit:10;}
	.st15{fill:url(#SVGID_16_);}
	.st16{fill:#D8AD55;}
	.st17{fill:#C7913B;}
	.st18{fill:#A26828;}
	.st19{fill:#FFF5E6;}
	.st20{opacity:0.3;}
	.st21{opacity:0.3;fill:#80BCA8;}
	.st22{opacity:0.5;}
	.st23{opacity:0.2;fill:none;stroke:#000000;stroke-miterlimit:10;}
	.st24{stroke:#000000;stroke-miterlimit:10;}
	.st25{fill:none;stroke:#000000;stroke-miterlimit:10;}
	.st26{fill:none;stroke:#F6921E;stroke-miterlimit:10;}
	.st27{fill:#CBCBCB;}
	.st28{fill:#0C1421;}
	.st29{fill:none;stroke:#FFFFFF;stroke-miterlimit:10;}
	.st30{fill:none;stroke:#000000;stroke-width:0.75;stroke-miterlimit:10;}
	.st31{fill:none;stroke:#000000;stroke-width:2;stroke-miterlimit:10;}
	.st32{opacity:0.1;fill:none;stroke:#000000;stroke-miterlimit:10;}
	.st33{fill:#BE8A3A;}
	.st34{fill:none;stroke:#FFFFFF;stroke-width:5;stroke-miterlimit:10;}
	.st35{fill:none;stroke:#D8AD55;stroke-miterlimit:10;}
	.st36{opacity:0.5;fill:#D8AD55;}
	.st37{fill:#4D4D4D;}
	.st38{fill:#FFFFFF;stroke:#000000;stroke-width:0.75;stroke-miterlimit:10;}
	.st39{fill:#F1F1F1;stroke:#000000;stroke-width:0.75;stroke-miterlimit:10;}
	.st40{opacity:0.1;}
	.st41{fill:none;stroke:#000000;stroke-width:1.5;stroke-miterlimit:10;}
	.st42{fill:#E5E5E5;}
	.st43{clip-path:url(#SVGID_42_);fill:url(#SVGID_43_);}
	.st44{opacity:0.3;fill:#FFFFFF;}
	.st45{fill:none;stroke:#FFFFFF;stroke-width:0.75;stroke-miterlimit:10;}
	.st46{fill:url(#SVGID_74_);}
	.st47{fill:url(#SVGID_75_);}
	.st48{fill:url(#SVGID_76_);}
	.st49{fill:none;stroke:#D8AD55;stroke-width:0.75;stroke-miterlimit:10;}
	.st50{fill:#C0272D;}
</style>
<g id="Layer_2" class="st0">
</g>
<g id="Layer_1">
	<path d="M48.9,99.5c-2.5-1.1-3.4-3.1-3.3-5.8c0.2-3.1,0-6.3,0-9.5c-2.9,0-5.6,0-8.3,0c-0.9,0-1.8,0-2.7,0c-2.5-0.1-4.3-2-4.3-4.4
		c0-2.4,1.9-4.3,4.4-4.3c3.1,0,6.3,0,9.4,0c0.4,0,0.9,0,1.4,0c0-2.3,0-4.5,0-6.5c-3.4-1.1-6.8-1.9-9.9-3.3
		C22,59.4,14.1,44.8,16.1,30C18.2,15.2,29.6,3.5,44.4,1C63.7-2.3,81.7,11.3,84,30.8c0,0.3,0.2,0.6,0.2,0.9c0,2,0,4,0,6
		c-0.1,0.3-0.2,0.6-0.2,0.9C81.9,52.6,74.2,62,61,67c-2.1,0.8-4.4,1.2-6.5,1.8c0,2.2,0,4.4,0,6.7c3.6,0,7.2,0,10.7,0
		c2.6,0,4.5,1.9,4.5,4.3c0,2.4-1.9,4.3-4.4,4.4c-0.6,0-1.3,0-1.9,0c-2.9,0-5.9,0-9,0c0,3.3-0.1,6.5,0,9.7c0.1,2.7-0.8,4.6-3.3,5.6
		C50.4,99.5,49.6,99.5,48.9,99.5z M75.4,34.8c0-14.2-11.4-25.6-25.6-25.6c-13.9,0-25.2,11.5-25.2,25.6c0,13.8,11.5,25.3,25.4,25.3
		C64,60.1,75.4,48.7,75.4,34.8z"/>
</g>
</svg>
