<?xml version="1.0" encoding="utf-8"?>
<!-- Generator: Adobe Illustrator 25.2.3, SVG Export Plug-In . SVG Version: 6.00 Build 0)  -->
<svg version="1.1" xmlns="http://www.w3.org/2000/svg" xmlns:xlink="http://www.w3.org/1999/xlink" x="0px" y="0px"
	 viewBox="0 0 100 100" style="enable-background:new 0 0 100 100;" xml:space="preserve">
<style type="text/css">
	.st0{display:none;}
	.st1{display:inline;opacity:0.5;}
	.st2{opacity:0.2;}
	.st3{fill-rule:evenodd;clip-rule:evenodd;fill:#606060;}
	.st4{fill:#015641;}
	.st5{fill:#F5F8FC;}
	.st6{fill:#FAC700;}
	.st7{clip-path:url(#SVGID_8_);fill:url(#SVGID_9_);}
	.st8{clip-path:url(#SVGID_11_);fill:url(#SVGID_12_);}
	.st9{clip-path:url(#SVGID_14_);fill:url(#SVGID_15_);}
	.st10{fill:none;stroke:#FFFFFF;stroke-width:2;stroke-miterlimit:10;}
	.st11{fill:#FFFFFF;}
	.st12{opacity:0.3;fill:none;stroke:#FFFFFF;stroke-miterlimit:10;}
	.st13{opacity:0.5;fill:none;stroke:#FFFFFF;stroke-miterlimit:10;}
	.st14{fill:none;stroke:#000000;stroke-width:5;stroke-miterlimit:10;}
	.st15{fill:url(#SVGID_16_);}
	.st16{fill:#D8AD55;}
	.st17{fill:#C7913B;}
	.st18{fill:#A26828;}
	.st19{fill:#FFF5E6;}
	.st20{opacity:0.3;}
	.st21{opacity:0.3;fill:#80BCA8;}
	.st22{opacity:0.5;}
	.st23{opacity:0.2;fill:none;stroke:#000000;stroke-miterlimit:10;}
	.st24{stroke:#000000;stroke-miterlimit:10;}
	.st25{fill:none;stroke:#000000;stroke-miterlimit:10;}
	.st26{fill:none;stroke:#F6921E;stroke-miterlimit:10;}
	.st27{fill:#CBCBCB;}
	.st28{fill:#0C1421;}
	.st29{fill:none;stroke:#FFFFFF;stroke-miterlimit:10;}
	.st30{fill:none;stroke:#000000;stroke-width:0.75;stroke-miterlimit:10;}
	.st31{fill:none;stroke:#000000;stroke-width:2;stroke-miterlimit:10;}
	.st32{opacity:0.1;fill:none;stroke:#000000;stroke-miterlimit:10;}
	.st33{fill:#BE8A3A;}
	.st34{fill:none;stroke:#FFFFFF;stroke-width:5;stroke-miterlimit:10;}
	.st35{fill:none;stroke:#D8AD55;stroke-miterlimit:10;}
	.st36{opacity:0.5;fill:#D8AD55;}
	.st37{fill:#4D4D4D;}
	.st38{fill:#FFFFFF;stroke:#000000;stroke-width:0.75;stroke-miterlimit:10;}
	.st39{fill:#F1F1F1;stroke:#000000;stroke-width:0.75;stroke-miterlimit:10;}
	.st40{opacity:0.1;}
	.st41{fill:none;stroke:#000000;stroke-width:1.5;stroke-miterlimit:10;}
	.st42{fill:#E5E5E5;}
	.st43{clip-path:url(#SVGID_42_);fill:url(#SVGID_43_);}
	.st44{opacity:0.3;fill:#FFFFFF;}
	.st45{fill:none;stroke:#FFFFFF;stroke-width:0.75;stroke-miterlimit:10;}
	.st46{fill:url(#SVGID_74_);}
	.st47{fill:url(#SVGID_75_);}
	.st48{fill:url(#SVGID_76_);}
	.st49{fill:none;stroke:#D8AD55;stroke-width:0.75;stroke-miterlimit:10;}
	.st50{fill:#C0272D;}
</style>
<g id="Layer_2" class="st0">
</g>
<g id="Layer_1">
	<g>
		<g>
			<path class="st11" d="M50,99.5L50,99.5C22.7,99.5,0.5,77.3,0.5,50v0C0.5,22.7,22.7,0.5,50,0.5h0c27.3,0,49.5,22.2,49.5,49.5v0
				C99.5,77.3,77.3,99.5,50,99.5z"/>
		</g>
		<g>
			<g>
				<path d="M50,70c-0.9,0-1.8-0.4-2.7-1.1c-4.4-3.6-9.1-7.5-13.7-11.8l-0.6-0.5c-1.4-1.3-2.9-2.7-4.1-4.4
					c-3.4-5.1-3.6-10.5-0.7-15.4c2.2-3.7,5.8-6.1,10.1-6.6C42.7,29.6,46.9,31,50,34c1.4-1.4,3.1-2.4,5-3.1c4-1.5,8.3-1,12,1.2
					c3.6,2.2,6,5.8,6.6,10l0.1,0.8l0,2.3l-0.1,0.8c-0.1,0.7-0.2,1.3-0.4,2c-0.7,2.5-2.1,4.7-4.4,7c-3.2,3.2-6.7,6.2-9.9,9
					c-1.4,1.2-2.9,2.4-4.4,3.6l-1.7,1.4C51.8,69.6,50.9,70,50,70z M40.3,33.5c-0.5,0-0.9,0-1.4,0.1c-3.2,0.4-5.9,2.2-7.5,4.9
					c-2.3,3.8-2.1,7.7,0.6,11.7c0.9,1.4,2.2,2.6,3.5,3.8l0.6,0.5c4.5,4.2,9.1,8,13.5,11.6c0.3,0.2,0.4,0.3,0.5,0.3
					c0,0,0.1-0.1,0.4-0.3l1.7-1.4c1.4-1.2,2.9-2.4,4.3-3.6c3.2-2.7,6.6-5.7,9.7-8.8c1.8-1.8,3-3.6,3.5-5.5c0.2-0.5,0.2-1.1,0.3-1.6
					l0.1-0.7V43c0-0.2-0.1-0.4-0.1-0.5c-0.4-3.1-2.2-5.8-4.9-7.4c-2.8-1.7-6-2-9-0.9c-1.5,0.6-2.8,1.4-3.9,2.5L50,38.9l-1.6-1.7
					c-0.2-0.3-0.5-0.5-0.7-0.7C45.6,34.6,43,33.5,40.3,33.5z"/>
			</g>
		</g>
	</g>
</g>
</svg>
