<?xml version="1.0" encoding="utf-8"?>
<!-- Generator: Adobe Illustrator 25.2.3, SVG Export Plug-In . SVG Version: 6.00 Build 0)  -->
<svg version="1.1" xmlns="http://www.w3.org/2000/svg" xmlns:xlink="http://www.w3.org/1999/xlink" x="0px" y="0px"
	 viewBox="0 0 100 100" style="enable-background:new 0 0 100 100;" xml:space="preserve">
<style type="text/css">
	.st0{display:none;}
	.st1{display:inline;opacity:0.5;}
	.st2{opacity:0.2;}
	.st3{fill-rule:evenodd;clip-rule:evenodd;fill:#606060;}
	.st4{fill:#015641;}
	.st5{fill:#F5F8FC;}
	.st6{fill:#FAC700;}
	.st7{clip-path:url(#SVGID_8_);fill:url(#SVGID_9_);}
	.st8{clip-path:url(#SVGID_11_);fill:url(#SVGID_12_);}
	.st9{clip-path:url(#SVGID_14_);fill:url(#SVGID_15_);}
	.st10{fill:none;stroke:#FFFFFF;stroke-width:2;stroke-miterlimit:10;}
	.st11{fill:#FFFFFF;}
	.st12{opacity:0.3;fill:none;stroke:#FFFFFF;stroke-miterlimit:10;}
	.st13{opacity:0.5;fill:none;stroke:#FFFFFF;stroke-miterlimit:10;}
	.st14{fill:none;stroke:#000000;stroke-width:5;stroke-miterlimit:10;}
	.st15{fill:url(#SVGID_16_);}
	.st16{fill:#D8AD55;}
	.st17{fill:#C7913B;}
	.st18{fill:#A26828;}
	.st19{fill:#FFF5E6;}
	.st20{opacity:0.3;}
	.st21{opacity:0.3;fill:#80BCA8;}
	.st22{opacity:0.5;}
	.st23{opacity:0.2;fill:none;stroke:#000000;stroke-miterlimit:10;}
	.st24{stroke:#000000;stroke-miterlimit:10;}
	.st25{fill:none;stroke:#000000;stroke-miterlimit:10;}
	.st26{fill:none;stroke:#F6921E;stroke-miterlimit:10;}
	.st27{fill:#CBCBCB;}
	.st28{fill:#0C1421;}
	.st29{fill:none;stroke:#FFFFFF;stroke-miterlimit:10;}
	.st30{fill:none;stroke:#000000;stroke-width:0.75;stroke-miterlimit:10;}
	.st31{fill:none;stroke:#000000;stroke-width:2;stroke-miterlimit:10;}
	.st32{opacity:0.1;fill:none;stroke:#000000;stroke-miterlimit:10;}
	.st33{fill:#BE8A3A;}
	.st34{fill:none;stroke:#FFFFFF;stroke-width:5;stroke-miterlimit:10;}
	.st35{fill:none;stroke:#D8AD55;stroke-miterlimit:10;}
	.st36{opacity:0.5;fill:#D8AD55;}
	.st37{fill:#4D4D4D;}
	.st38{fill:#FFFFFF;stroke:#000000;stroke-width:0.75;stroke-miterlimit:10;}
	.st39{fill:#F1F1F1;stroke:#000000;stroke-width:0.75;stroke-miterlimit:10;}
	.st40{opacity:0.1;}
	.st41{fill:none;stroke:#000000;stroke-width:1.5;stroke-miterlimit:10;}
	.st42{fill:#E5E5E5;}
	.st43{clip-path:url(#SVGID_42_);fill:url(#SVGID_43_);}
	.st44{opacity:0.3;fill:#FFFFFF;}
	.st45{fill:none;stroke:#FFFFFF;stroke-width:0.75;stroke-miterlimit:10;}
	.st46{fill:url(#SVGID_74_);}
	.st47{fill:url(#SVGID_75_);}
	.st48{fill:url(#SVGID_76_);}
	.st49{fill:none;stroke:#D8AD55;stroke-width:0.75;stroke-miterlimit:10;}
	.st50{fill:#C0272D;}
</style>
<g id="Layer_2" class="st0">
</g>
<g id="Layer_1">
	<g>
		<g>
			<g>
				<path d="M52.1,0.5c2,0.4,4,0.7,5.9,1.3c11.4,3.6,19,14.8,18.1,26.5c-1,12.4-9.9,22.1-21.9,24.1C39.3,54.8,25.5,44.2,24,29.2
					C22.5,15,32.9,2.2,47.1,0.7c0.3,0,0.5-0.1,0.7-0.2C49.3,0.5,50.7,0.5,52.1,0.5z"/>
				<path d="M50,99.5c-13.4,0-26.7,0-40.1,0c-2.4,0-3.5-1.1-3.5-3.6c0.2-18.3,13.8-34,32-37c1.7-0.3,3.3-0.4,5-0.4
					c4.2-0.1,8.4-0.1,12.6,0c16.9,0.2,31.7,11.6,36.2,27.9c0.9,3.2,1.3,6.4,1.4,9.6c0,2.3-1.1,3.5-3.4,3.5
					C76.8,99.5,63.4,99.5,50,99.5z"/>
			</g>
		</g>
	</g>
</g>
</svg>

