<?xml version="1.0" encoding="utf-8"?>
<!-- Generator: Adobe Illustrator 25.2.3, SVG Export Plug-In . SVG Version: 6.00 Build 0)  -->
<svg version="1.1" xmlns="http://www.w3.org/2000/svg" xmlns:xlink="http://www.w3.org/1999/xlink" x="0px" y="0px"
		viewBox="0 0 100 100" style="enable-background:new 0 0 100 100;" xml:space="preserve">
	<g id="Layer_2" class="st0">
	</g>
	<g id="Layer_1">
		<g>
			<path d="M59.8,92.6c-0.1-2.4-3.2-4.3-7-4.3c-0.3,0-0.5,0-0.8,0c0-1.1,0-2.2,0-3.2c-0.1-3.8-3.1-7-6.9-7c-10-0.1-19.9-0.1-29.9,0
				c-3.7,0-6.7,3-6.9,6.7c-0.1,1.1,0,2.3,0,3.5c-0.3,0-0.6,0-0.9,0c-3.7,0-6.8,1.9-6.9,4.2c-0.1,1.1,0,2.2,0,3.2
				c0,1.6,0.7,2.1,3.3,2.1c8.8,0,17.5,0,26.3,0c2.8,0,5.5,0,8.3,0c6.1,0,12.1,0,18.2,0c2.4,0,3.2-0.5,3.2-2
				C59.8,94.7,59.9,93.7,59.8,92.6z"/>
			<g>
				<path d="M96.3,73.3c-11.6-10.4-23.3-20.7-34.9-31c-1.1-1-2.2-2-3.3-2.9c-2.6,2.6-5.3,5.3-7.9,7.9c7.1,8,14.2,16,21.3,24
					c4.2,4.7,8.4,9.5,12.6,14.2c4,4.4,10.7,4,13.9-0.8C100.5,81.1,99.8,76.4,96.3,73.3z"/>
				<path d="M65,32.5c0.3,0.3,0.6,0.6,0.9,0.9c2.1,2.1,5.4,2.1,7.5,0c2.1-2.1,2.2-5.4,0.1-7.6c-7.4-7.4-14.8-14.8-22.2-22.2
					c-1-1-2.3-1.5-3.7-1.5c-2.3,0.1-4,1.1-4.9,3.2c-0.9,2.1-0.6,4.2,1.1,5.9c0.1,0.1,0.2,0.2,0.3,0.3c-7.2,7.2-14.5,14.5-21.8,21.8
					c-0.2-0.2-0.4-0.4-0.6-0.6c-1-1-2.3-1.5-3.8-1.5c-2.2,0.1-3.9,1.1-4.8,3.1c-0.9,2.1-0.7,4.2,1,5.9c7.4,7.4,14.8,14.9,22.3,22.3
					c2.1,2.1,5.4,2,7.5,0c2.1-2.1,2.2-5.4,0-7.6c-0.2-0.2-0.4-0.4-0.6-0.6c2.3-2.3,4.7-4.7,7-7c2.7-2.7,5.3-5.3,7.9-7.9
					C60.4,37.1,62.7,34.8,65,32.5z"/>
			</g>
		</g>
	</g>
</svg>
