<?xml version="1.0" encoding="utf-8"?>
<!-- Generator: Adobe Illustrator 25.2.3, SVG Export Plug-In . SVG Version: 6.00 Build 0)  -->
<svg version="1.1" xmlns="http://www.w3.org/2000/svg" xmlns:xlink="http://www.w3.org/1999/xlink" x="0px" y="0px"
	 viewBox="0 0 100 100" style="enable-background:new 0 0 100 100;" xml:space="preserve">
<style type="text/css">
	.st0{display:none;}
	.st1{display:inline;opacity:0.5;}
	.st2{opacity:0.2;}
	.st3{fill-rule:evenodd;clip-rule:evenodd;fill:#606060;}
	.st4{fill:#015641;}
	.st5{fill:#F5F8FC;}
	.st6{fill:#FAC700;}
	.st7{clip-path:url(#SVGID_8_);fill:url(#SVGID_9_);}
	.st8{clip-path:url(#SVGID_11_);fill:url(#SVGID_12_);}
	.st9{clip-path:url(#SVGID_14_);fill:url(#SVGID_15_);}
	.st10{fill:none;stroke:#FFFFFF;stroke-width:2;stroke-miterlimit:10;}
	.st11{fill:#FFFFFF;}
	.st12{opacity:0.3;fill:none;stroke:#FFFFFF;stroke-miterlimit:10;}
	.st13{opacity:0.5;fill:none;stroke:#FFFFFF;stroke-miterlimit:10;}
	.st14{fill:none;stroke:#000000;stroke-width:5;stroke-miterlimit:10;}
	.st15{fill:url(#SVGID_16_);}
	.st16{fill:#D8AD55;}
	.st17{fill:#C7913B;}
	.st18{fill:#A26828;}
	.st19{fill:#FFF5E6;}
	.st20{opacity:0.3;}
	.st21{opacity:0.3;fill:#80BCA8;}
	.st22{opacity:0.5;}
	.st23{opacity:0.2;fill:none;stroke:#000000;stroke-miterlimit:10;}
	.st24{stroke:#000000;stroke-miterlimit:10;}
	.st25{fill:none;stroke:#000000;stroke-miterlimit:10;}
	.st26{fill:none;stroke:#F6921E;stroke-miterlimit:10;}
	.st27{fill:#CBCBCB;}
	.st28{fill:#0C1421;}
	.st29{fill:none;stroke:#FFFFFF;stroke-miterlimit:10;}
	.st30{fill:none;stroke:#000000;stroke-width:0.75;stroke-miterlimit:10;}
	.st31{fill:none;stroke:#000000;stroke-width:2;stroke-miterlimit:10;}
	.st32{opacity:0.1;fill:none;stroke:#000000;stroke-miterlimit:10;}
	.st33{fill:#BE8A3A;}
	.st34{fill:none;stroke:#FFFFFF;stroke-width:5;stroke-miterlimit:10;}
	.st35{fill:none;stroke:#D8AD55;stroke-miterlimit:10;}
	.st36{opacity:0.5;fill:#D8AD55;}
	.st37{fill:#4D4D4D;}
	.st38{fill:#FFFFFF;stroke:#000000;stroke-width:0.75;stroke-miterlimit:10;}
	.st39{fill:#F1F1F1;stroke:#000000;stroke-width:0.75;stroke-miterlimit:10;}
	.st40{opacity:0.1;}
	.st41{fill:none;stroke:#000000;stroke-width:1.5;stroke-miterlimit:10;}
	.st42{fill:#E5E5E5;}
	.st43{clip-path:url(#SVGID_42_);fill:url(#SVGID_43_);}
	.st44{opacity:0.3;fill:#FFFFFF;}
	.st45{fill:none;stroke:#FFFFFF;stroke-width:0.75;stroke-miterlimit:10;}
	.st46{fill:url(#SVGID_74_);}
	.st47{fill:url(#SVGID_75_);}
	.st48{fill:url(#SVGID_76_);}
	.st49{fill:none;stroke:#D8AD55;stroke-width:0.75;stroke-miterlimit:10;}
	.st50{fill:#C0272D;}
</style>
<g id="Layer_2" class="st0">
</g>
<g id="Layer_1">
	<path d="M64.3,29c3.8-3.8,7.4-7.5,11.2-11.2c-3,0-6,0-9.1,0c-2.5,0-4.4-1.8-4.5-4.1C61.7,11.2,63.6,9,66.1,9C73,9,79.9,9,86.8,9
		c2.4,0,4.2,1.9,4.2,4.4c0,6.8,0,13.5,0,20.3c0,2.5-1.9,4.4-4.3,4.5c-2.4,0.1-4.4-1.9-4.5-4.4c-0.1-2.8,0-5.5,0-8.3
		c0-0.3,0-0.6,0-0.7c-3.6,3.6-7.3,7.3-11,11.1c6.4,8.9,8.5,19.1,5.5,30.1c-2.3,8.3-7.2,14.7-14.3,19.4c-14.3,9.4-33.4,6.7-44.8-6.2
		C6.1,66.2,6.1,47,17.6,33.8C28.8,20.9,49,17.6,64.3,29z M43.4,82.1c14.4,0,25.8-11.5,25.8-25.7c0-14.1-11.6-25.5-25.8-25.5
		c-14,0-25.6,11.6-25.6,25.7C17.9,70.7,29.4,82.2,43.4,82.1z"/>
</g>
</svg>
