<?xml version="1.0" encoding="utf-8"?>
<!-- Generator: Adobe Illustrator 25.2.3, SVG Export Plug-In . SVG Version: 6.00 Build 0)  -->
<svg version="1.1" xmlns="http://www.w3.org/2000/svg" xmlns:xlink="http://www.w3.org/1999/xlink" x="0px" y="0px"
	 viewBox="0 0 100 100" style="enable-background:new 0 0 100 100;" xml:space="preserve">
<style type="text/css">
	.st0{display:none;}
	.st1{display:inline;opacity:0.5;}
	.st2{opacity:0.2;}
	.st3{fill-rule:evenodd;clip-rule:evenodd;fill:#606060;}
	.st4{fill:#015641;}
	.st5{fill:#F5F8FC;}
	.st6{fill:#FAC700;}
	.st7{clip-path:url(#SVGID_8_);fill:url(#SVGID_9_);}
	.st8{clip-path:url(#SVGID_11_);fill:url(#SVGID_12_);}
	.st9{clip-path:url(#SVGID_14_);fill:url(#SVGID_15_);}
	.st10{fill:none;stroke:#FFFFFF;stroke-width:2;stroke-miterlimit:10;}
	.st11{fill:#FFFFFF;}
	.st12{opacity:0.3;fill:none;stroke:#FFFFFF;stroke-miterlimit:10;}
	.st13{opacity:0.5;fill:none;stroke:#FFFFFF;stroke-miterlimit:10;}
	.st14{fill:none;stroke:#000000;stroke-width:5;stroke-miterlimit:10;}
	.st15{fill:url(#SVGID_16_);}
	.st16{fill:#D8AD55;}
	.st17{fill:#C7913B;}
	.st18{fill:#A26828;}
	.st19{fill:#FFF5E6;}
	.st20{opacity:0.3;}
	.st21{opacity:0.3;fill:#80BCA8;}
	.st22{opacity:0.5;}
	.st23{opacity:0.2;fill:none;stroke:#000000;stroke-miterlimit:10;}
	.st24{stroke:#000000;stroke-miterlimit:10;}
	.st25{fill:none;stroke:#000000;stroke-miterlimit:10;}
	.st26{fill:none;stroke:#F6921E;stroke-miterlimit:10;}
	.st27{fill:#CBCBCB;}
	.st28{fill:#0C1421;}
	.st29{fill:none;stroke:#FFFFFF;stroke-miterlimit:10;}
	.st30{fill:none;stroke:#000000;stroke-width:0.75;stroke-miterlimit:10;}
	.st31{fill:none;stroke:#000000;stroke-width:2;stroke-miterlimit:10;}
	.st32{opacity:0.1;fill:none;stroke:#000000;stroke-miterlimit:10;}
	.st33{fill:#BE8A3A;}
	.st34{fill:none;stroke:#FFFFFF;stroke-width:5;stroke-miterlimit:10;}
	.st35{fill:none;stroke:#D8AD55;stroke-miterlimit:10;}
	.st36{opacity:0.5;fill:#D8AD55;}
	.st37{fill:#4D4D4D;}
	.st38{fill:#FFFFFF;stroke:#000000;stroke-width:0.75;stroke-miterlimit:10;}
	.st39{fill:#F1F1F1;stroke:#000000;stroke-width:0.75;stroke-miterlimit:10;}
	.st40{opacity:0.1;}
	.st41{fill:none;stroke:#000000;stroke-width:1.5;stroke-miterlimit:10;}
	.st42{fill:#E5E5E5;}
	.st43{clip-path:url(#SVGID_42_);fill:url(#SVGID_43_);}
	.st44{opacity:0.3;fill:#FFFFFF;}
	.st45{fill:none;stroke:#FFFFFF;stroke-width:0.75;stroke-miterlimit:10;}
	.st46{fill:url(#SVGID_74_);}
	.st47{fill:url(#SVGID_75_);}
	.st48{fill:url(#SVGID_76_);}
	.st49{fill:none;stroke:#D8AD55;stroke-width:0.75;stroke-miterlimit:10;}
	.st50{fill:#C0272D;}
</style>
<g id="Layer_2" class="st0">
</g>
<g id="Layer_1">
	<g>
		<path d="M52.9,0.5c1.9,0.3,3.8,0.4,5.7,0.8c15.7,3,27.4,11.5,35.1,25.5c4.3,7.9,6.3,16.4,5.7,25.3c-1.1,18.6-10,32.5-26.2,41.6
			c-7.8,4.4-16.4,6.3-25.3,5.7c-18.6-1.1-32.5-10-41.6-26.2c-3.4-6-5.2-12.6-5.7-19.5c0-0.3-0.1-0.6-0.2-0.8c0-1.9,0-3.9,0-5.8
			c0.1-0.3,0.1-0.6,0.2-0.8C1.1,39.4,3,32.8,6.3,26.8C14,12.8,25.7,4.3,41.4,1.3c1.9-0.4,3.8-0.5,5.7-0.8C49,0.5,51,0.5,52.9,0.5z
			 M50,5C25.3,4.9,5,25.1,5,50c-0.1,24.8,20.1,45,45,45c24.8,0.1,45-20.1,45-45C95.1,25.3,74.9,5,50,5z"/>
		<path d="M38.8,47.3c0.2-0.9,0.4-1.7,0.6-2.5c0.1-0.2,0.3-0.5,0.5-0.5c3.4-1.2,6.7-2.6,10.4-2.4c3.1,0.2,6,2.1,6.5,4.9
			c0.3,1.8,0.2,3.7-0.2,5.4c-0.9,3.9-2.2,7.8-3.2,11.7c-0.3,1.1-0.4,2.3-0.5,3.5c-0.1,1.5,0.6,2.4,2.1,2.7c1.7,0.4,3.5,0.2,5.1-0.4
			c0.1,0,0.3-0.1,0.6-0.2c-0.2,0.9-0.4,1.7-0.7,2.5c-0.1,0.2-0.3,0.3-0.5,0.4c-2.2,0.7-4.4,1.7-6.7,2.1c-2.8,0.6-5.6,0.4-8.1-1.3
			c-1.9-1.4-2.8-3.2-2.7-5.5c0.2-3.9,1.8-7.6,2.7-11.3c0.5-2.2,1.2-4.4,1.4-6.7c0.3-2.4-1-3.4-3.4-3.3c-0.7,0-1.4,0.2-2.1,0.3
			C40.1,46.8,39.5,47.1,38.8,47.3z"/>
		<path d="M54.8,25.2c3.7,0,6.4,2.6,6.4,5.9c0,2.5-1.8,4.7-4.6,5.4c-2.9,0.8-6.3-0.6-7.5-3.1c-1.8-3.6,0.8-7.7,5-8.1
			C54.4,25.3,54.7,25.3,54.8,25.2z"/>
	</g>
</g>
</svg>
