<?xml version="1.0" encoding="utf-8"?>
<!-- Generator: Adobe Illustrator 25.2.3, SVG Export Plug-In . SVG Version: 6.00 Build 0)  -->
<svg version="1.1" xmlns="http://www.w3.org/2000/svg" xmlns:xlink="http://www.w3.org/1999/xlink" x="0px" y="0px"
	 viewBox="0 0 100 100" style="enable-background:new 0 0 100 100;" xml:space="preserve">
<style type="text/css">
	.st0{display:none;}
	.st1{display:inline;opacity:0.5;}
	.st2{opacity:0.2;}
	.st3{fill-rule:evenodd;clip-rule:evenodd;fill:#606060;}
	.st4{fill:#015641;}
	.st5{fill:#F5F8FC;}
	.st6{fill:#FAC700;}
	.st7{clip-path:url(#SVGID_8_);fill:url(#SVGID_9_);}
	.st8{clip-path:url(#SVGID_11_);fill:url(#SVGID_12_);}
	.st9{clip-path:url(#SVGID_14_);fill:url(#SVGID_15_);}
	.st10{fill:none;stroke:#FFFFFF;stroke-width:2;stroke-miterlimit:10;}
	.st11{fill:#FFFFFF;}
	.st12{opacity:0.3;fill:none;stroke:#FFFFFF;stroke-miterlimit:10;}
	.st13{opacity:0.5;fill:none;stroke:#FFFFFF;stroke-miterlimit:10;}
	.st14{fill:none;stroke:#000000;stroke-width:5;stroke-miterlimit:10;}
	.st15{fill:url(#SVGID_16_);}
	.st16{fill:#D8AD55;}
	.st17{fill:#C7913B;}
	.st18{fill:#A26828;}
	.st19{fill:#FFF5E6;}
	.st20{opacity:0.3;}
	.st21{opacity:0.3;fill:#80BCA8;}
	.st22{opacity:0.5;}
	.st23{opacity:0.2;fill:none;stroke:#000000;stroke-miterlimit:10;}
	.st24{stroke:#000000;stroke-miterlimit:10;}
	.st25{fill:none;stroke:#000000;stroke-miterlimit:10;}
	.st26{fill:none;stroke:#F6921E;stroke-miterlimit:10;}
	.st27{fill:#CBCBCB;}
	.st28{fill:#0C1421;}
	.st29{fill:none;stroke:#FFFFFF;stroke-miterlimit:10;}
	.st30{fill:none;stroke:#000000;stroke-width:0.75;stroke-miterlimit:10;}
	.st31{fill:none;stroke:#000000;stroke-width:2;stroke-miterlimit:10;}
	.st32{opacity:0.1;fill:none;stroke:#000000;stroke-miterlimit:10;}
	.st33{fill:#BE8A3A;}
	.st34{fill:none;stroke:#FFFFFF;stroke-width:5;stroke-miterlimit:10;}
	.st35{fill:none;stroke:#D8AD55;stroke-miterlimit:10;}
	.st36{opacity:0.5;fill:#D8AD55;}
	.st37{fill:#4D4D4D;}
	.st38{fill:#FFFFFF;stroke:#000000;stroke-width:0.75;stroke-miterlimit:10;}
	.st39{fill:#F1F1F1;stroke:#000000;stroke-width:0.75;stroke-miterlimit:10;}
	.st40{opacity:0.1;}
	.st41{fill:none;stroke:#000000;stroke-width:1.5;stroke-miterlimit:10;}
	.st42{fill:#E5E5E5;}
	.st43{clip-path:url(#SVGID_42_);fill:url(#SVGID_43_);}
	.st44{opacity:0.3;fill:#FFFFFF;}
	.st45{fill:none;stroke:#FFFFFF;stroke-width:0.75;stroke-miterlimit:10;}
	.st46{fill:url(#SVGID_74_);}
	.st47{fill:url(#SVGID_75_);}
	.st48{fill:url(#SVGID_76_);}
	.st49{fill:none;stroke:#D8AD55;stroke-width:0.75;stroke-miterlimit:10;}
	.st50{fill:#C0272D;}
</style>
<g id="Layer_2" class="st0">
</g>
<g id="Layer_1">
	<g>
		<circle class="st11" cx="50" cy="50" r="49.5"/>
		<g>
			<path d="M24.5,75.6c0.4-1.4,0.8-2.8,1.1-4.2c0.8-2.8,1.6-5.6,2.3-8.5c0.1-0.3,0-0.6-0.1-0.9C21,49.5,25.8,33.7,38.6,27.2
				c14.1-7.2,31.2,0,35.8,15.1c4.1,13.3-3.4,27.6-16.8,31.6c-6.6,2-13,1.4-19.2-1.7c-0.2-0.1-0.6-0.2-0.8-0.1
				c-4.1,1.1-8.3,2.2-12.4,3.2C25,75.5,24.8,75.5,24.5,75.6z M30.6,69.6c2.5-0.7,5-1.3,7.4-2c0.4-0.1,0.7-0.1,1.1,0.2
				c4.7,2.8,9.7,3.7,15.1,2.7c11.4-2.3,18.7-13.2,16.6-24.6c-2.1-11.3-13.2-18.9-24.6-16.7c-14.2,2.7-21.6,18.5-14.4,31
				c0.7,1.3,0.9,2.4,0.4,3.7C31.6,65.7,31.2,67.6,30.6,69.6z"/>
			<path d="M41.9,38.1c1.1-0.3,1.6,0.4,2,1.4c0.6,1.5,1.2,3,1.8,4.4c0.2,0.5,0.2,1-0.1,1.4c-0.5,0.7-1,1.3-1.5,2
				c-0.4,0.4-0.4,0.8-0.1,1.3c2.1,3.5,5,6,8.7,7.5c0.5,0.2,0.9,0.1,1.3-0.3c0.6-0.8,1.3-1.5,1.9-2.3c0.5-0.6,0.7-0.7,1.4-0.4
				c1.8,0.8,3.6,1.7,5.3,2.6c0.2,0.1,0.4,0.5,0.4,0.8c0,2.7-0.8,4-3.7,5.2c-1.6,0.7-3.3,0.5-5,0.1C48.1,59.9,43.6,56.1,40,51
				c-1.1-1.6-2.1-3.2-2.6-5.1c-0.6-2.7,0.1-5.1,2.1-7.1C40.2,38.1,41,38,41.9,38.1z"/>
		</g>
	</g>
</g>
</svg>
