<?xml version="1.0" encoding="utf-8"?>
<!-- Generator: Adobe Illustrator 25.2.3, SVG Export Plug-In . SVG Version: 6.00 Build 0)  -->
<svg version="1.1" xmlns="http://www.w3.org/2000/svg" xmlns:xlink="http://www.w3.org/1999/xlink" x="0px" y="0px"
	 viewBox="0 0 100 100" style="enable-background:new 0 0 100 100;" xml:space="preserve">
<style type="text/css">
	.st0{display:none;}
	.st1{display:inline;opacity:0.5;}
	.st2{opacity:0.2;}
	.st3{fill-rule:evenodd;clip-rule:evenodd;fill:#606060;}
	.st4{fill:#015641;}
	.st5{fill:#F5F8FC;}
	.st6{fill:#FAC700;}
	.st7{clip-path:url(#SVGID_8_);fill:url(#SVGID_9_);}
	.st8{clip-path:url(#SVGID_11_);fill:url(#SVGID_12_);}
	.st9{clip-path:url(#SVGID_14_);fill:url(#SVGID_15_);}
	.st10{fill:none;stroke:#FFFFFF;stroke-width:2;stroke-miterlimit:10;}
	.st11{fill:#FFFFFF;}
	.st12{opacity:0.3;fill:none;stroke:#FFFFFF;stroke-miterlimit:10;}
	.st13{opacity:0.5;fill:none;stroke:#FFFFFF;stroke-miterlimit:10;}
	.st14{fill:none;stroke:#000000;stroke-width:5;stroke-miterlimit:10;}
	.st15{fill:url(#SVGID_16_);}
	.st16{fill:#D8AD55;}
	.st17{fill:#C7913B;}
	.st18{fill:#A26828;}
	.st19{fill:#FFF5E6;}
	.st20{opacity:0.3;}
	.st21{opacity:0.3;fill:#80BCA8;}
	.st22{opacity:0.5;}
	.st23{opacity:0.2;fill:none;stroke:#000000;stroke-miterlimit:10;}
	.st24{stroke:#000000;stroke-miterlimit:10;}
	.st25{fill:none;stroke:#000000;stroke-miterlimit:10;}
	.st26{fill:none;stroke:#F6921E;stroke-miterlimit:10;}
	.st27{fill:#CBCBCB;}
	.st28{fill:#0C1421;}
	.st29{fill:none;stroke:#FFFFFF;stroke-miterlimit:10;}
	.st30{fill:none;stroke:#000000;stroke-width:0.75;stroke-miterlimit:10;}
	.st31{fill:none;stroke:#000000;stroke-width:2;stroke-miterlimit:10;}
	.st32{opacity:0.1;fill:none;stroke:#000000;stroke-miterlimit:10;}
	.st33{fill:#BE8A3A;}
	.st34{fill:none;stroke:#FFFFFF;stroke-width:5;stroke-miterlimit:10;}
	.st35{fill:none;stroke:#D8AD55;stroke-miterlimit:10;}
	.st36{opacity:0.5;fill:#D8AD55;}
	.st37{fill:#4D4D4D;}
	.st38{fill:#FFFFFF;stroke:#000000;stroke-width:0.75;stroke-miterlimit:10;}
	.st39{fill:#F1F1F1;stroke:#000000;stroke-width:0.75;stroke-miterlimit:10;}
	.st40{opacity:0.1;}
	.st41{fill:none;stroke:#000000;stroke-width:1.5;stroke-miterlimit:10;}
	.st42{fill:#E5E5E5;}
	.st43{clip-path:url(#SVGID_42_);fill:url(#SVGID_43_);}
	.st44{opacity:0.3;fill:#FFFFFF;}
	.st45{fill:none;stroke:#FFFFFF;stroke-width:0.75;stroke-miterlimit:10;}
	.st46{fill:url(#SVGID_74_);}
	.st47{fill:url(#SVGID_75_);}
	.st48{fill:url(#SVGID_76_);}
	.st49{fill:none;stroke:#D8AD55;stroke-width:0.75;stroke-miterlimit:10;}
	.st50{fill:#C0272D;}
</style>
<g id="Layer_2" class="st0">
</g>
<g id="Layer_1">
	<g>
		<path d="M19.7,21.5c1.1,1.1,2,2.1,3,3.1c6.9-5.7,14.8-9,23.7-9.8c0-2.4,0-4.7,0-7.2c-1,0-2.1,0-3.1,0c-2.3,0-3.9-1.5-3.9-3.5
			c0-2.1,1.6-3.5,3.8-3.6c4.5,0,9.1,0,13.6,0c2.2,0,3.8,1.5,3.8,3.6c0,2-1.6,3.5-3.8,3.5c-1.1,0-2.1,0-3.2,0c0,2.4,0,4.8,0,7.2
			c12.3,1.3,22.5,6.7,30.1,16.5c5.6,7.2,8.5,15.4,8.7,24.5c0.4,18.8-11,35.3-28.5,41.3c-17.5,6-36.8,0.1-48-14.9
			C5,67.6,4.2,45.8,17.5,29.9c-1-1-1.9-1.9-3.1-3.1c-0.2,0.3-0.5,0.7-0.8,1.1c-1.4,1.3-3.5,1.3-4.9-0.1c-1.4-1.3-1.5-3.5-0.1-4.9
			c2.4-2.5,4.8-4.9,7.3-7.3c1.4-1.4,3.6-1.3,5,0.1c1.3,1.4,1.3,3.5,0,4.9C20.4,20.9,20.1,21.2,19.7,21.5z M49.9,92.4
			c19.6,0,35.5-15.8,35.4-35.4c0-19.4-15.9-35.2-35.2-35.2c-19.6,0-35.5,15.7-35.5,35.3C14.6,76.5,30.5,92.4,49.9,92.4z"/>
		<path d="M46.5,47.2c0-2.4,0-4.7,0-7.1c0-2.6,1.4-4.3,3.6-4.2c2.1,0,3.5,1.6,3.5,4.2c0,4,0.1,7.9,0,11.9c0,1.2,0.4,1.9,1.2,2.6
			c3.9,3.4,7.8,6.9,11.7,10.3c1.4,1.2,1.8,2.7,1.2,4.2c-0.9,2.3-3.8,3-5.8,1.2c-3.8-3.4-7.6-6.7-11.4-10.1c-0.9-0.8-1.7-1.5-2.6-2.3
			c-0.9-0.8-1.3-1.8-1.3-3C46.5,52.3,46.5,49.7,46.5,47.2z"/>
	</g>
</g>
</svg>
